<svg xmlns="http://www.w3.org/2000/svg" xmlns:xlink="http://www.w3.org/1999/xlink" width="960" zoomAndPan="magnify" viewBox="0 0 720 404.99999" height="540" preserveAspectRatio="xMidYMid meet" version="1.0"><defs><filter x="0%" y="0%" width="100%" height="100%" id="7fac7d48a9"><feColorMatrix values="0 0 0 0 1 0 0 0 0 1 0 0 0 0 1 0 0 0 1 0" color-interpolation-filters="sRGB"/></filter><clipPath id="944e13f8a4"><path d="M 0 0 L 720 0 L 720 399 L 0 399 Z M 0 0 " clip-rule="nonzero"/></clipPath><clipPath id="0378a054bf"><path d="M 797.003906 -83.203125 C 796.332031 -38.675781 765.902344 2.046875 752.476562 43.21875 C 732.558594 104.082031 745.316406 170.539062 711.75 227.375 C 671.027344 295.847656 583.3125 322.921875 511.261719 287.34375 C 479.488281 271.679688 440.777344 279.511719 417.953125 306.585938 C 369.84375 363.199219 298.015625 399 217.6875 399 C 155.703125 399 98.644531 377.519531 53.671875 341.492188 C 34.203125 326.054688 15.628906 331.425781 -4.730469 339.480469 C -28.003906 348.652344 -49.484375 343.058594 -68.28125 326.726562 C -94.011719 304.125 -117.730469 304.796875 -149.503906 302.78125 C -220.660156 298.308594 -216.410156 190.007812 -147.714844 186.203125 C -131.15625 185.308594 -119.96875 194.257812 -104.304688 197.167969 C -90.433594 199.851562 -79.914062 196.496094 -71.414062 189.335938 C -62.910156 182.175781 -70.742188 168.527344 -81.257812 171.660156 C -87.523438 173.671875 -94.011719 174.566406 -100.949219 174.566406 C -138.765625 174.566406 -168.972656 142.570312 -166.285156 104.082031 C -163.824219 71.636719 -137.421875 45.683594 -104.976562 43.667969 C -82.824219 42.324219 -62.910156 51.945312 -50.15625 67.609375 C -45.007812 73.875 -35.164062 72.085938 -32.703125 64.253906 L -32.703125 64.03125 C -21.960938 28.226562 -4.285156 -5.335938 19.433594 -34.199219 C 68.214844 -93.273438 140.9375 -127.507812 217.464844 -127.507812 C 292.199219 -127.507812 359.550781 -96.40625 407.4375 -46.285156 C 419.742188 -33.53125 455.992188 -11.378906 473.222656 -8.46875 C 509.023438 -2.425781 548.40625 -34.199219 563.621094 -63.738281 C 563.621094 -63.738281 590.917969 -116.769531 590.917969 -116.769531 C 606.582031 -157.269531 646.1875 -185.910156 692.507812 -185.238281 C 741.0625 -183.898438 790.289062 -145.855469 796.332031 -96.183594 C 796.78125 -91.929688 797.003906 -87.457031 797.003906 -83.203125 Z M 797.003906 -83.203125 " clip-rule="nonzero"/></clipPath><linearGradient x1="141.63811" gradientTransform="matrix(2.232483, 0, 0, 2.232483, -220.660816, -185.910515)" y1="40.478111" x2="392.255918" gradientUnits="userSpaceOnUse" y2="291.095918" id="00e2e28e04"><stop stop-opacity="1" stop-color="rgb(100%, 58.714294%, 58.714294%)" offset="0"/><stop stop-opacity="1" stop-color="rgb(100%, 58.589172%, 58.589172%)" offset="0.0078125"/><stop stop-opacity="1" stop-color="rgb(100%, 58.338928%, 58.338928%)" offset="0.015625"/><stop stop-opacity="1" stop-color="rgb(100%, 58.087158%, 58.087158%)" offset="0.0234375"/><stop stop-opacity="1" stop-color="rgb(100%, 57.836914%, 57.836914%)" offset="0.03125"/><stop stop-opacity="1" stop-color="rgb(100%, 57.585144%, 57.585144%)" offset="0.0390625"/><stop stop-opacity="1" stop-color="rgb(100%, 57.3349%, 57.3349%)" offset="0.046875"/><stop stop-opacity="1" stop-color="rgb(100%, 57.084656%, 57.084656%)" offset="0.0546875"/><stop stop-opacity="1" stop-color="rgb(100%, 56.832886%, 56.832886%)" offset="0.0625"/><stop stop-opacity="1" stop-color="rgb(100%, 56.582642%, 56.582642%)" offset="0.0703125"/><stop stop-opacity="1" stop-color="rgb(100%, 56.330872%, 56.330872%)" offset="0.078125"/><stop stop-opacity="1" stop-color="rgb(100%, 56.080627%, 56.080627%)" offset="0.0859375"/><stop stop-opacity="1" stop-color="rgb(100%, 55.830383%, 55.830383%)" offset="0.09375"/><stop stop-opacity="1" stop-color="rgb(100%, 55.578613%, 55.578613%)" offset="0.101563"/><stop stop-opacity="1" stop-color="rgb(100%, 55.328369%, 55.328369%)" offset="0.109375"/><stop stop-opacity="1" stop-color="rgb(100%, 55.078125%, 55.078125%)" offset="0.117188"/><stop stop-opacity="1" stop-color="rgb(100%, 54.826355%, 54.826355%)" offset="0.125"/><stop stop-opacity="1" stop-color="rgb(100%, 54.576111%, 54.576111%)" offset="0.132813"/><stop stop-opacity="1" stop-color="rgb(100%, 54.324341%, 54.324341%)" offset="0.140625"/><stop stop-opacity="1" stop-color="rgb(100%, 54.074097%, 54.074097%)" offset="0.148438"/><stop stop-opacity="1" stop-color="rgb(100%, 53.823853%, 53.823853%)" offset="0.15625"/><stop stop-opacity="1" stop-color="rgb(100%, 53.572083%, 53.572083%)" offset="0.164063"/><stop stop-opacity="1" stop-color="rgb(100%, 53.321838%, 53.321838%)" offset="0.171875"/><stop stop-opacity="1" stop-color="rgb(100%, 53.071594%, 53.071594%)" offset="0.179688"/><stop stop-opacity="1" stop-color="rgb(100%, 52.819824%, 52.819824%)" offset="0.1875"/><stop stop-opacity="1" stop-color="rgb(100%, 52.56958%, 52.56958%)" offset="0.195313"/><stop stop-opacity="1" stop-color="rgb(100%, 52.31781%, 52.31781%)" offset="0.203125"/><stop stop-opacity="1" stop-color="rgb(100%, 52.067566%, 52.067566%)" offset="0.210938"/><stop stop-opacity="1" stop-color="rgb(100%, 51.817322%, 51.817322%)" offset="0.21875"/><stop stop-opacity="1" stop-color="rgb(100%, 51.565552%, 51.565552%)" offset="0.226563"/><stop stop-opacity="1" stop-color="rgb(100%, 51.315308%, 51.315308%)" offset="0.234375"/><stop stop-opacity="1" stop-color="rgb(100%, 51.063538%, 51.063538%)" offset="0.242188"/><stop stop-opacity="1" stop-color="rgb(100%, 50.813293%, 50.813293%)" offset="0.25"/><stop stop-opacity="1" stop-color="rgb(100%, 50.563049%, 50.563049%)" offset="0.257812"/><stop stop-opacity="1" stop-color="rgb(100%, 50.311279%, 50.311279%)" offset="0.265625"/><stop stop-opacity="1" stop-color="rgb(100%, 50.061035%, 50.061035%)" offset="0.273438"/><stop stop-opacity="1" stop-color="rgb(100%, 49.810791%, 49.810791%)" offset="0.28125"/><stop stop-opacity="1" stop-color="rgb(100%, 49.559021%, 49.559021%)" offset="0.289062"/><stop stop-opacity="1" stop-color="rgb(100%, 49.308777%, 49.308777%)" offset="0.296875"/><stop stop-opacity="1" stop-color="rgb(100%, 49.057007%, 49.057007%)" offset="0.304688"/><stop stop-opacity="1" stop-color="rgb(100%, 48.806763%, 48.806763%)" offset="0.3125"/><stop stop-opacity="1" stop-color="rgb(100%, 48.556519%, 48.556519%)" offset="0.320312"/><stop stop-opacity="1" stop-color="rgb(100%, 48.304749%, 48.304749%)" offset="0.328125"/><stop stop-opacity="1" stop-color="rgb(100%, 48.054504%, 48.054504%)" offset="0.335938"/><stop stop-opacity="1" stop-color="rgb(100%, 47.802734%, 47.802734%)" offset="0.34375"/><stop stop-opacity="1" stop-color="rgb(100%, 47.55249%, 47.55249%)" offset="0.351562"/><stop stop-opacity="1" stop-color="rgb(100%, 47.302246%, 47.302246%)" offset="0.356568"/><stop stop-opacity="1" stop-color="rgb(100%, 47.177124%, 47.177124%)" offset="0.359375"/><stop stop-opacity="1" stop-color="rgb(99.900818%, 47.221375%, 47.067261%)" offset="0.375"/><stop stop-opacity="1" stop-color="rgb(99.684143%, 47.366333%, 46.875%)" offset="0.390625"/><stop stop-opacity="1" stop-color="rgb(99.449158%, 47.566223%, 46.710205%)" offset="0.40625"/><stop stop-opacity="1" stop-color="rgb(99.215698%, 47.764587%, 46.543884%)" offset="0.421875"/><stop stop-opacity="1" stop-color="rgb(98.980713%, 47.962952%, 46.379089%)" offset="0.4375"/><stop stop-opacity="1" stop-color="rgb(98.747253%, 48.162842%, 46.212769%)" offset="0.453125"/><stop stop-opacity="1" stop-color="rgb(98.512268%, 48.361206%, 46.046448%)" offset="0.46875"/><stop stop-opacity="1" stop-color="rgb(98.278809%, 48.55957%, 45.881653%)" offset="0.484375"/><stop stop-opacity="1" stop-color="rgb(98.043823%, 48.75946%, 45.715332%)" offset="0.5"/><stop stop-opacity="1" stop-color="rgb(97.808838%, 48.957825%, 45.549011%)" offset="0.515625"/><stop stop-opacity="1" stop-color="rgb(97.575378%, 49.156189%, 45.384216%)" offset="0.53125"/><stop stop-opacity="1" stop-color="rgb(97.340393%, 49.356079%, 45.217896%)" offset="0.546875"/><stop stop-opacity="1" stop-color="rgb(97.106934%, 49.554443%, 45.053101%)" offset="0.5625"/><stop stop-opacity="1" stop-color="rgb(96.871948%, 49.752808%, 44.88678%)" offset="0.578125"/><stop stop-opacity="1" stop-color="rgb(96.638489%, 49.952698%, 44.720459%)" offset="0.59375"/><stop stop-opacity="1" stop-color="rgb(96.403503%, 50.151062%, 44.555664%)" offset="0.609375"/><stop stop-opacity="1" stop-color="rgb(96.170044%, 50.349426%, 44.389343%)" offset="0.625"/><stop stop-opacity="1" stop-color="rgb(95.935059%, 50.549316%, 44.223022%)" offset="0.640625"/><stop stop-opacity="1" stop-color="rgb(95.701599%, 50.747681%, 44.058228%)" offset="0.643432"/><stop stop-opacity="1" stop-color="rgb(95.584106%, 50.846863%, 43.97583%)" offset="0.65625"/><stop stop-opacity="1" stop-color="rgb(95.466614%, 50.946045%, 43.891907%)" offset="0.671875"/><stop stop-opacity="1" stop-color="rgb(95.233154%, 51.145935%, 43.727112%)" offset="0.6875"/><stop stop-opacity="1" stop-color="rgb(94.998169%, 51.344299%, 43.560791%)" offset="0.703125"/><stop stop-opacity="1" stop-color="rgb(94.764709%, 51.544189%, 43.39447%)" offset="0.71875"/><stop stop-opacity="1" stop-color="rgb(94.529724%, 51.742554%, 43.229675%)" offset="0.734375"/><stop stop-opacity="1" stop-color="rgb(94.296265%, 51.940918%, 43.063354%)" offset="0.75"/><stop stop-opacity="1" stop-color="rgb(94.061279%, 52.140808%, 42.89856%)" offset="0.765625"/><stop stop-opacity="1" stop-color="rgb(93.82782%, 52.339172%, 42.732239%)" offset="0.78125"/><stop stop-opacity="1" stop-color="rgb(93.592834%, 52.537537%, 42.565918%)" offset="0.796875"/><stop stop-opacity="1" stop-color="rgb(93.359375%, 52.737427%, 42.401123%)" offset="0.8125"/><stop stop-opacity="1" stop-color="rgb(93.12439%, 52.935791%, 42.234802%)" offset="0.828125"/><stop stop-opacity="1" stop-color="rgb(92.89093%, 53.134155%, 42.068481%)" offset="0.84375"/><stop stop-opacity="1" stop-color="rgb(92.655945%, 53.334045%, 41.903687%)" offset="0.859375"/><stop stop-opacity="1" stop-color="rgb(92.422485%, 53.53241%, 41.737366%)" offset="0.875"/><stop stop-opacity="1" stop-color="rgb(92.1875%, 53.730774%, 41.572571%)" offset="0.890625"/><stop stop-opacity="1" stop-color="rgb(91.952515%, 53.930664%, 41.40625%)" offset="0.90625"/><stop stop-opacity="1" stop-color="rgb(91.719055%, 54.129028%, 41.239929%)" offset="0.921875"/><stop stop-opacity="1" stop-color="rgb(91.48407%, 54.327393%, 41.075134%)" offset="0.9375"/><stop stop-opacity="1" stop-color="rgb(91.25061%, 54.527283%, 40.908813%)" offset="0.953125"/><stop stop-opacity="1" stop-color="rgb(91.015625%, 54.725647%, 40.742493%)" offset="0.96875"/><stop stop-opacity="1" stop-color="rgb(90.782166%, 54.924011%, 40.577698%)" offset="0.984375"/><stop stop-opacity="1" stop-color="rgb(90.54718%, 55.123901%, 40.411377%)" offset="1"/></linearGradient><mask id="744f6742db"><g filter="url(#7fac7d48a9)"><rect x="-72" width="864" fill="#000000" y="-40.499999" height="485.999988" fill-opacity="0.13"/></g></mask><clipPath id="f86ad55216"><path d="M 0 0 L 412 0 L 412 349 L 0 349 Z M 0 0 " clip-rule="nonzero"/></clipPath><clipPath id="1afecb7c17"><path d="M -26.726562 -75.117188 L 402.832031 -88.035156 L 415.636719 337.769531 L -13.917969 350.691406 Z M -26.726562 -75.117188 " clip-rule="nonzero"/></clipPath><clipPath id="cc04303265"><path d="M -26.726562 -75.117188 L 402.832031 -88.035156 L 415.636719 337.769531 L -13.917969 350.691406 Z M -26.726562 -75.117188 " clip-rule="nonzero"/></clipPath><clipPath id="d4b0d4c3a4"><rect x="0" width="415" y="0" height="352"/></clipPath><mask id="8ee46d934e"><g filter="url(#7fac7d48a9)"><rect x="-72" width="864" fill="#000000" y="-40.499999" height="485.999988" fill-opacity="0.13"/></g></mask><clipPath id="31f0fddc7b"><path d="M 2 0 L 287 0 L 287 258 L 2 258 Z M 2 0 " clip-rule="nonzero"/></clipPath><clipPath id="ceab171d17"><path d="M 0.335938 -166.121094 L 429.890625 -179.042969 L 442.699219 246.765625 L 13.140625 259.683594 Z M 0.335938 -166.121094 " clip-rule="nonzero"/></clipPath><clipPath id="4a2271a6cf"><path d="M 0.335938 -166.121094 L 429.890625 -179.042969 L 442.699219 246.765625 L 13.140625 259.683594 Z M 0.335938 -166.121094 " clip-rule="nonzero"/></clipPath><clipPath id="2173370999"><rect x="0" width="287" y="0" height="261"/></clipPath></defs><g clip-path="url(#944e13f8a4)"><g clip-path="url(#0378a054bf)"><path fill="url(#00e2e28e04)" d="M 0 0 L 0 399 L 720 399 L 720 0 Z M 0 0 " fill-rule="nonzero"/></g></g><g mask="url(#744f6742db)"><g><g clip-path="url(#d4b0d4c3a4)"><g clip-path="url(#f86ad55216)"><g clip-path="url(#1afecb7c17)"><g clip-path="url(#cc04303265)"><path fill="#ffffff" d="M -0.796875 -58.6875 C -1.929688 -57.097656 -3.15625 -55.558594 -4.445312 -54.082031 C -5.09375 -53.335938 -5.757812 -52.613281 -6.433594 -51.910156 C -7.179688 -51.132812 -7.988281 -50.425781 -9.117188 -50.390625 C -10.246094 -50.355469 -11.351562 -50.96875 -12.363281 -51.492188 C -13.164062 -51.886719 -13.945312 -52.328125 -14.710938 -52.8125 C -16.300781 -53.820312 -17.800781 -54.957031 -19.199219 -56.214844 C -20.777344 -57.566406 -22.054688 -59.15625 -23.039062 -60.984375 C -24.195312 -62.679688 -25.371094 -64.886719 -24.742188 -66.984375 C -23.632812 -70.683594 -19.128906 -70.457031 -16.402344 -68.84375 C -13.875 -67.257812 -11.859375 -65.167969 -10.359375 -62.585938 L -9.886719 -63.925781 C -9.277344 -65.652344 -8.652344 -67.433594 -7.5 -68.886719 C -6.921875 -69.652344 -6.214844 -70.269531 -5.378906 -70.738281 C -4.542969 -71.203125 -3.644531 -71.484375 -2.691406 -71.574219 C -2.234375 -71.621094 -1.78125 -71.601562 -1.328125 -71.519531 C -0.878906 -71.4375 -0.445312 -71.296875 -0.0351562 -71.09375 C 0.378906 -70.890625 0.753906 -70.636719 1.09375 -70.328125 C 1.4375 -70.023438 1.730469 -69.675781 1.972656 -69.285156 C 4.230469 -65.632812 1.335938 -61.609375 -0.796875 -58.6875 Z M 58.75 -22.417969 C 58.507812 -22.804688 58.214844 -23.152344 57.875 -23.457031 C 57.53125 -23.765625 57.15625 -24.019531 56.742188 -24.222656 C 56.332031 -24.425781 55.902344 -24.566406 55.449219 -24.648438 C 54.996094 -24.730469 54.542969 -24.75 54.085938 -24.707031 C 53.132812 -24.617188 52.234375 -24.339844 51.398438 -23.871094 C 50.5625 -23.402344 49.855469 -22.785156 49.28125 -22.015625 C 48.125 -20.566406 47.503906 -18.785156 46.894531 -17.058594 L 46.421875 -15.71875 C 44.917969 -18.300781 42.902344 -20.386719 40.375 -21.972656 C 37.648438 -23.585938 33.132812 -23.8125 32.035156 -20.113281 C 31.40625 -18.015625 32.582031 -15.816406 33.738281 -14.113281 C 34.726562 -12.285156 36.003906 -10.695312 37.582031 -9.34375 C 38.984375 -8.085938 40.480469 -6.949219 42.074219 -5.945312 C 42.828125 -5.488281 43.613281 -5.03125 44.414062 -4.613281 C 45.429688 -4.09375 46.492188 -3.46875 47.667969 -3.515625 C 48.839844 -3.558594 49.597656 -4.273438 50.34375 -5.03125 C 51.085938 -5.792969 51.6875 -6.46875 52.332031 -7.207031 C 53.621094 -8.683594 54.847656 -10.222656 56 -11.8125 C 58.09375 -14.753906 60.992188 -18.761719 58.75 -22.417969 Z M 138.96875 -75.453125 C 138.726562 -75.839844 138.433594 -76.1875 138.089844 -76.496094 C 137.75 -76.800781 137.375 -77.058594 136.960938 -77.257812 C 136.550781 -77.460938 136.117188 -77.601562 135.667969 -77.683594 C 135.214844 -77.765625 134.761719 -77.785156 134.304688 -77.742188 C 133.351562 -77.652344 132.453125 -77.375 131.617188 -76.90625 C 130.777344 -76.4375 130.070312 -75.820312 129.496094 -75.054688 C 128.34375 -73.582031 127.71875 -71.824219 127.109375 -70.09375 L 126.636719 -68.757812 C 125.136719 -71.339844 123.121094 -73.421875 120.59375 -75.011719 C 117.867188 -76.625 113.351562 -76.847656 112.253906 -73.148438 C 111.621094 -71.050781 112.800781 -68.851562 113.957031 -67.148438 C 114.941406 -65.316406 116.21875 -63.726562 117.796875 -62.371094 C 119.199219 -61.113281 120.695312 -59.980469 122.289062 -58.972656 C 123.046875 -58.515625 123.828125 -58.058594 124.632812 -57.640625 C 125.644531 -57.121094 126.710938 -56.496094 127.878906 -56.542969 C 129.046875 -56.585938 129.816406 -57.300781 130.5625 -58.058594 C 131.304688 -58.820312 131.90625 -59.496094 132.550781 -60.234375 C 133.839844 -61.710938 135.066406 -63.25 136.21875 -64.839844 C 138.332031 -67.777344 141.226562 -71.796875 138.96875 -75.453125 Z M 219.105469 88.644531 C 218.863281 88.253906 218.570312 87.90625 218.230469 87.601562 C 217.890625 87.292969 217.511719 87.039062 217.101562 86.835938 C 216.691406 86.632812 216.257812 86.492188 215.808594 86.410156 C 215.355469 86.328125 214.902344 86.308594 214.445312 86.355469 C 213.492188 86.441406 212.59375 86.722656 211.753906 87.191406 C 210.917969 87.65625 210.210938 88.277344 209.636719 89.042969 C 208.484375 90.492188 207.859375 92.273438 207.25 94 L 206.777344 95.339844 C 205.277344 92.753906 203.261719 90.667969 200.726562 89.082031 C 198.007812 87.46875 193.484375 87.242188 192.394531 90.941406 C 191.761719 93.046875 192.933594 95.238281 194.097656 96.941406 C 195.082031 98.773438 196.359375 100.367188 197.9375 101.71875 C 199.335938 102.980469 200.832031 104.113281 202.429688 105.121094 C 203.1875 105.578125 203.96875 106.03125 204.769531 106.453125 C 205.785156 106.96875 206.847656 107.597656 208.019531 107.554688 C 209.195312 107.511719 209.957031 106.796875 210.703125 106.035156 C 211.445312 105.277344 212.042969 104.601562 212.691406 103.859375 C 213.980469 102.382812 215.207031 100.847656 216.359375 99.253906 C 218.46875 96.316406 221.367188 92.292969 219.105469 88.644531 Z M 344.261719 96.015625 C 344.015625 95.628906 343.722656 95.28125 343.382812 94.972656 C 343.042969 94.667969 342.664062 94.410156 342.253906 94.210938 C 341.84375 94.007812 341.410156 93.867188 340.960938 93.785156 C 340.507812 93.703125 340.054688 93.683594 339.597656 93.726562 C 338.640625 93.816406 337.746094 94.09375 336.910156 94.5625 C 336.070312 95.03125 335.367188 95.648438 334.789062 96.414062 C 333.636719 97.863281 333.015625 99.644531 332.40625 101.375 C 332.246094 101.820312 332.085938 102.265625 331.933594 102.710938 C 330.425781 100.128906 328.40625 98.046875 325.871094 96.457031 C 323.144531 94.84375 318.625 94.621094 317.53125 98.320312 C 316.902344 100.417969 318.078125 102.617188 319.234375 104.320312 C 320.21875 106.152344 321.5 107.742188 323.078125 109.097656 C 324.476562 110.355469 325.972656 111.488281 327.5625 112.5 C 328.324219 112.953125 329.109375 113.410156 329.910156 113.828125 C 330.925781 114.347656 331.988281 114.972656 333.164062 114.925781 C 334.335938 114.882812 335.09375 114.167969 335.839844 113.410156 C 336.582031 112.648438 337.183594 111.972656 337.828125 111.234375 C 339.117188 109.761719 340.34375 108.21875 341.496094 106.632812 C 343.625 103.691406 346.523438 99.671875 344.261719 96.015625 Z M 13.550781 45.410156 C 13.304688 45.019531 13.015625 44.671875 12.671875 44.367188 C 12.332031 44.058594 11.957031 43.804688 11.546875 43.601562 C 11.132812 43.402344 10.703125 43.257812 10.25 43.175781 C 9.800781 43.09375 9.347656 43.074219 8.890625 43.121094 C 7.929688 43.207031 7.03125 43.484375 6.1875 43.953125 C 5.347656 44.421875 4.636719 45.039062 4.054688 45.808594 C 2.90625 47.28125 2.277344 49.042969 1.667969 50.769531 L 1.199219 52.125 C -0.296875 49.535156 -2.3125 47.445312 -4.84375 45.851562 C -7.570312 44.238281 -12.085938 44.015625 -13.179688 47.710938 C -13.8125 49.8125 -12.640625 52.007812 -11.476562 53.714844 C -10.496094 55.542969 -9.214844 57.136719 -7.640625 58.488281 C -6.238281 59.75 -4.742188 60.882812 -3.148438 61.890625 C -2.386719 62.375 -1.605469 62.816406 -0.800781 63.21875 C 0.210938 63.742188 1.273438 64.371094 2.445312 64.320312 C 3.617188 64.269531 4.382812 63.5625 5.125 62.800781 C 5.871094 62.042969 6.46875 61.371094 7.117188 60.628906 C 8.40625 59.152344 9.632812 57.613281 10.78125 56.023438 C 12.894531 53.085938 15.789062 49.066406 13.527344 45.410156 Z M 212.863281 -28.4375 C 212.617188 -28.824219 212.328125 -29.171875 211.984375 -29.480469 C 211.644531 -29.789062 211.269531 -30.042969 210.855469 -30.246094 C 210.445312 -30.449219 210.011719 -30.589844 209.5625 -30.671875 C 209.109375 -30.753906 208.65625 -30.773438 208.199219 -30.730469 C 207.242188 -30.640625 206.347656 -30.359375 205.511719 -29.890625 C 204.675781 -29.421875 203.96875 -28.804688 203.390625 -28.035156 C 202.238281 -26.585938 201.617188 -24.804688 201.007812 -23.082031 L 200.535156 -21.738281 C 199.03125 -24.324219 197.015625 -26.410156 194.484375 -27.996094 C 191.757812 -29.613281 187.242188 -29.835938 186.144531 -26.136719 C 185.519531 -24.035156 186.691406 -21.839844 187.851562 -20.136719 C 188.835938 -18.304688 190.117188 -16.714844 191.695312 -15.359375 C 193.09375 -14.097656 194.589844 -12.964844 196.179688 -11.957031 C 196.941406 -11.476562 197.726562 -11.046875 198.523438 -10.625 C 199.542969 -10.109375 200.605469 -9.480469 201.777344 -9.53125 C 202.949219 -9.578125 203.710938 -10.289062 204.453125 -11.046875 C 205.199219 -11.808594 205.800781 -12.476562 206.445312 -13.21875 C 207.730469 -14.695312 208.960938 -16.238281 210.109375 -17.824219 C 212.246094 -20.765625 215.144531 -24.785156 212.863281 -28.4375 Z M 140.390625 31.363281 C 140.144531 30.976562 139.851562 30.628906 139.511719 30.320312 C 139.171875 30.015625 138.792969 29.761719 138.382812 29.558594 C 137.972656 29.355469 137.539062 29.214844 137.085938 29.132812 C 136.636719 29.050781 136.183594 29.03125 135.726562 29.074219 C 134.769531 29.164062 133.875 29.441406 133.039062 29.910156 C 132.199219 30.378906 131.496094 30.996094 130.917969 31.765625 C 129.765625 33.210938 129.144531 34.996094 128.535156 36.722656 L 128.0625 38.058594 C 126.558594 35.476562 124.542969 33.390625 122.011719 31.800781 C 119.285156 30.1875 114.769531 29.964844 113.671875 33.667969 C 113.046875 35.765625 114.21875 37.964844 115.378906 39.667969 C 116.363281 41.496094 117.644531 43.089844 119.21875 44.441406 C 120.621094 45.699219 122.117188 46.835938 123.707031 47.847656 C 124.46875 48.300781 125.253906 48.757812 126.050781 49.175781 C 127.070312 49.695312 128.132812 50.320312 129.304688 50.273438 C 130.476562 50.230469 131.238281 49.515625 131.980469 48.757812 C 132.726562 47.996094 133.328125 47.320312 133.972656 46.578125 C 135.257812 45.101562 136.488281 43.566406 137.636719 41.972656 C 139.773438 39.035156 142.671875 35.015625 140.390625 31.363281 Z M 68.53125 103.992188 C 68.289062 103.601562 67.996094 103.253906 67.65625 102.949219 C 67.316406 102.640625 66.941406 102.386719 66.527344 102.183594 C 66.117188 101.980469 65.6875 101.839844 65.234375 101.757812 C 64.785156 101.675781 64.328125 101.65625 63.875 101.703125 C 62.917969 101.792969 62.019531 102.070312 61.183594 102.539062 C 60.34375 103.007812 59.636719 103.625 59.0625 104.390625 C 57.914062 105.863281 57.285156 107.621094 56.675781 109.347656 L 56.203125 110.6875 C 54.703125 108.101562 52.6875 106.015625 50.15625 104.429688 C 47.433594 102.816406 42.914062 102.589844 41.820312 106.289062 C 41.191406 108.394531 42.363281 110.585938 43.527344 112.289062 C 44.507812 114.121094 45.785156 115.714844 47.363281 117.066406 C 48.765625 118.328125 50.261719 119.464844 51.855469 120.46875 C 52.617188 120.949219 53.398438 121.382812 54.195312 121.800781 C 55.210938 122.316406 56.277344 122.949219 57.449219 122.902344 C 58.621094 122.859375 59.386719 122.144531 60.128906 121.382812 C 60.871094 120.625 61.46875 119.949219 62.121094 119.207031 C 63.40625 117.730469 64.636719 116.195312 65.785156 114.601562 C 67.902344 111.664062 70.808594 107.640625 68.53125 103.992188 Z M 404.460938 28.203125 C 404.21875 27.816406 403.925781 27.46875 403.585938 27.164062 C 403.242188 26.855469 402.867188 26.601562 402.457031 26.398438 C 402.046875 26.195312 401.613281 26.054688 401.164062 25.972656 C 400.710938 25.890625 400.257812 25.871094 399.800781 25.914062 C 398.847656 26.003906 397.949219 26.28125 397.113281 26.75 C 396.273438 27.21875 395.566406 27.835938 394.992188 28.605469 C 393.839844 30.078125 393.214844 31.835938 392.605469 33.5625 L 392.132812 34.898438 C 390.632812 32.316406 388.617188 30.234375 386.085938 28.648438 C 383.363281 27.03125 378.839844 26.808594 377.75 30.507812 C 377.117188 32.605469 378.292969 34.804688 379.453125 36.507812 C 380.4375 38.339844 381.714844 39.929688 383.292969 41.285156 C 384.695312 42.546875 386.191406 43.679688 387.785156 44.6875 C 388.542969 45.144531 389.324219 45.597656 390.125 46.015625 C 391.140625 46.535156 392.203125 47.160156 393.375 47.117188 C 394.550781 47.070312 395.3125 46.359375 396.058594 45.597656 C 396.800781 44.835938 397.398438 44.164062 398.046875 43.425781 C 399.335938 41.949219 400.5625 40.40625 401.714844 38.820312 C 403.824219 35.878906 406.722656 31.859375 404.460938 28.203125 Z M 276.8125 -81.664062 C 276.570312 -82.050781 276.277344 -82.402344 275.9375 -82.707031 C 275.597656 -83.015625 275.222656 -83.273438 274.808594 -83.476562 C 274.398438 -83.675781 273.964844 -83.820312 273.515625 -83.902344 C 273.0625 -83.984375 272.609375 -84.007812 272.152344 -83.960938 C 271.195312 -83.875 270.296875 -83.59375 269.457031 -83.125 C 268.621094 -82.652344 267.914062 -82.035156 267.335938 -81.261719 C 266.1875 -79.816406 265.5625 -78.035156 264.953125 -76.304688 L 264.480469 -74.96875 C 262.980469 -77.550781 260.964844 -79.636719 258.433594 -81.226562 C 255.714844 -82.839844 251.191406 -83.0625 250.101562 -79.363281 C 249.46875 -77.261719 250.640625 -75.070312 251.804688 -73.359375 C 252.789062 -71.53125 254.066406 -69.941406 255.644531 -68.585938 C 257.050781 -67.324219 258.554688 -66.191406 260.152344 -65.1875 C 260.914062 -64.730469 261.695312 -64.273438 262.492188 -63.851562 C 263.511719 -63.335938 264.574219 -62.707031 265.746094 -62.753906 C 266.917969 -62.796875 267.679688 -63.511719 268.429688 -64.273438 C 269.175781 -65.03125 269.769531 -65.707031 270.417969 -66.449219 C 271.707031 -67.925781 272.933594 -69.460938 274.085938 -71.054688 C 276.179688 -73.992188 279.074219 -78.011719 276.8125 -81.664062 Z M 356.105469 -29.464844 C 355.859375 -29.855469 355.566406 -30.203125 355.226562 -30.507812 C 354.882812 -30.816406 354.507812 -31.070312 354.097656 -31.273438 C 353.683594 -31.472656 353.253906 -31.617188 352.800781 -31.699219 C 352.351562 -31.78125 351.894531 -31.800781 351.441406 -31.753906 C 350.484375 -31.664062 349.585938 -31.386719 348.75 -30.917969 C 347.910156 -30.449219 347.203125 -29.832031 346.628906 -29.066406 C 345.480469 -27.59375 344.851562 -25.835938 344.242188 -24.105469 L 343.769531 -22.769531 C 342.273438 -25.355469 340.257812 -27.4375 337.726562 -29.023438 C 335 -30.636719 330.484375 -30.859375 329.386719 -27.164062 C 328.761719 -25.0625 329.933594 -22.867188 331.089844 -21.160156 C 332.074219 -19.328125 333.355469 -17.730469 334.933594 -16.371094 C 336.335938 -15.113281 337.835938 -13.976562 339.425781 -12.96875 C 340.1875 -12.511719 340.96875 -12.058594 341.769531 -11.640625 C 342.785156 -11.121094 343.851562 -10.496094 345.019531 -10.539062 C 346.1875 -10.585938 346.957031 -11.296875 347.699219 -12.058594 C 348.445312 -12.820312 349.046875 -13.492188 349.691406 -14.230469 C 350.976562 -15.707031 352.207031 -17.25 353.355469 -18.839844 C 355.46875 -21.78125 358.359375 -25.820312 356.105469 -29.464844 Z M 397.980469 -83.304688 C 397.734375 -83.691406 397.441406 -84.039062 397.101562 -84.347656 C 396.757812 -84.652344 396.382812 -84.910156 395.972656 -85.109375 C 395.558594 -85.3125 395.128906 -85.453125 394.675781 -85.535156 C 394.226562 -85.617188 393.769531 -85.636719 393.316406 -85.59375 C 392.363281 -85.5 391.46875 -85.21875 390.632812 -84.753906 C 389.800781 -84.285156 389.09375 -83.667969 388.519531 -82.90625 C 387.367188 -81.433594 386.742188 -79.671875 386.132812 -77.945312 L 385.660156 -76.605469 C 384.160156 -79.199219 382.140625 -81.289062 379.601562 -82.882812 C 376.875 -84.496094 372.359375 -84.71875 371.261719 -81.019531 C 370.636719 -78.921875 371.808594 -76.722656 372.964844 -75.019531 C 373.949219 -73.1875 375.226562 -71.597656 376.804688 -70.242188 C 378.207031 -68.984375 379.703125 -67.847656 381.296875 -66.839844 C 382.058594 -66.359375 382.839844 -65.917969 383.640625 -65.511719 C 384.652344 -64.992188 385.722656 -64.363281 386.894531 -64.414062 C 388.066406 -64.460938 388.824219 -65.171875 389.570312 -65.929688 C 390.3125 -66.691406 390.917969 -67.359375 391.558594 -68.105469 C 392.847656 -69.582031 394.074219 -71.121094 395.226562 -72.707031 C 397.363281 -75.628906 400.234375 -79.667969 397.980469 -83.304688 Z M 295.121094 24.066406 C 294.875 23.675781 294.582031 23.328125 294.242188 23.023438 C 293.902344 22.714844 293.523438 22.460938 293.113281 22.257812 C 292.699219 22.058594 292.269531 21.914062 291.816406 21.832031 C 291.367188 21.75 290.914062 21.730469 290.457031 21.777344 C 289.5 21.867188 288.605469 22.144531 287.765625 22.613281 C 286.929688 23.082031 286.222656 23.699219 285.648438 24.464844 C 284.496094 25.9375 283.871094 27.695312 283.261719 29.425781 L 282.789062 30.761719 C 281.289062 28.179688 279.273438 26.097656 276.746094 24.507812 C 274.019531 22.894531 269.503906 22.671875 268.40625 26.367188 C 267.78125 28.46875 268.953125 30.664062 270.113281 32.371094 C 271.097656 34.199219 272.378906 35.792969 273.957031 37.144531 C 275.355469 38.40625 276.851562 39.539062 278.441406 40.546875 C 279.203125 41.003906 279.988281 41.460938 280.785156 41.875 C 281.804688 42.398438 282.867188 43.019531 284.039062 42.976562 C 285.210938 42.929688 285.972656 42.21875 286.714844 41.457031 C 287.460938 40.699219 288.0625 40.023438 288.707031 39.285156 C 289.992188 37.808594 291.222656 36.269531 292.371094 34.679688 C 294.484375 31.742188 297.382812 27.722656 295.121094 24.066406 Z M 7.757812 156.179688 C 7.515625 155.792969 7.222656 155.441406 6.882812 155.136719 C 6.542969 154.828125 6.167969 154.574219 5.753906 154.371094 C 5.34375 154.167969 4.910156 154.023438 4.460938 153.941406 C 4.007812 153.859375 3.554688 153.839844 3.097656 153.886719 C 2.140625 153.976562 1.246094 154.257812 0.410156 154.726562 C -0.429688 155.195312 -1.136719 155.8125 -1.714844 156.582031 C -2.863281 158.027344 -3.488281 159.808594 -4.097656 161.535156 L -4.570312 162.875 C -6.070312 160.292969 -8.085938 158.207031 -10.613281 156.617188 C -13.355469 155.003906 -17.859375 154.761719 -18.96875 158.480469 C -19.601562 160.582031 -18.425781 162.773438 -17.265625 164.480469 C -16.28125 166.3125 -15.003906 167.902344 -13.425781 169.257812 C -12.027344 170.519531 -10.527344 171.652344 -8.933594 172.65625 C -8.171875 173.136719 -7.394531 173.570312 -6.59375 173.992188 C -5.578125 174.507812 -4.515625 175.136719 -3.339844 175.085938 C -2.167969 175.035156 -1.40625 174.328125 -0.660156 173.570312 C 0.0820312 172.808594 0.679688 172.136719 1.328125 171.394531 C 2.617188 169.917969 3.84375 168.378906 4.996094 166.789062 C 7.113281 163.851562 10.003906 159.832031 7.742188 156.179688 Z M 64.507812 203.046875 C 64.261719 202.660156 63.96875 202.3125 63.628906 202.003906 C 63.289062 201.699219 62.910156 201.441406 62.5 201.242188 C 62.085938 201.039062 61.65625 200.898438 61.203125 200.816406 C 60.753906 200.734375 60.300781 200.714844 59.84375 200.757812 C 58.886719 200.847656 57.992188 201.125 57.152344 201.59375 C 56.316406 202.0625 55.609375 202.679688 55.035156 203.445312 C 53.882812 204.917969 53.253906 206.675781 52.644531 208.40625 L 52.171875 209.742188 C 50.671875 207.160156 48.660156 205.074219 46.128906 203.488281 C 43.402344 201.875 38.886719 201.652344 37.789062 205.351562 C 37.164062 207.449219 38.335938 209.648438 39.496094 211.351562 C 40.476562 213.183594 41.757812 214.777344 43.335938 216.128906 C 44.738281 217.386719 46.234375 218.519531 47.824219 219.527344 C 48.585938 219.984375 49.371094 220.441406 50.167969 220.859375 C 51.179688 221.378906 52.25 222.003906 53.421875 221.957031 C 54.59375 221.914062 55.355469 221.199219 56.097656 220.441406 C 56.839844 219.679688 57.445312 219.003906 58.089844 218.265625 C 59.375 216.789062 60.605469 215.25 61.753906 213.660156 C 63.871094 210.722656 66.769531 206.703125 64.507812 203.046875 Z M 144.738281 150.011719 C 144.496094 149.621094 144.203125 149.273438 143.863281 148.96875 C 143.523438 148.660156 143.144531 148.40625 142.734375 148.203125 C 142.324219 148.003906 141.890625 147.859375 141.441406 147.777344 C 140.988281 147.695312 140.535156 147.675781 140.078125 147.71875 C 139.125 147.808594 138.226562 148.089844 137.390625 148.558594 C 136.554688 149.027344 135.84375 149.644531 135.269531 150.410156 C 134.121094 151.882812 133.492188 153.644531 132.882812 155.367188 L 132.410156 156.707031 C 130.910156 154.121094 128.894531 152.039062 126.363281 150.453125 C 123.640625 148.839844 119.121094 148.613281 118.027344 152.3125 C 117.394531 154.410156 118.570312 156.609375 119.730469 158.3125 C 120.714844 160.144531 121.992188 161.738281 123.570312 163.089844 C 124.972656 164.351562 126.46875 165.484375 128.0625 166.492188 C 128.824219 166.949219 129.601562 167.402344 130.402344 167.820312 C 131.417969 168.339844 132.480469 168.964844 133.65625 168.921875 C 134.828125 168.875 135.589844 168.164062 136.335938 167.402344 C 137.078125 166.640625 137.675781 165.96875 138.324219 165.230469 C 139.613281 163.753906 140.839844 162.210938 141.992188 160.625 C 144.109375 157.6875 147 153.664062 144.738281 150.011719 Z M 224.902344 314.105469 C 224.660156 313.71875 224.367188 313.371094 224.027344 313.0625 C 223.683594 312.757812 223.308594 312.5 222.898438 312.300781 C 222.484375 312.097656 222.054688 311.957031 221.601562 311.875 C 221.152344 311.792969 220.695312 311.773438 220.238281 311.816406 C 219.285156 311.90625 218.390625 312.183594 217.550781 312.652344 C 216.714844 313.121094 216.007812 313.738281 215.433594 314.503906 C 214.28125 315.976562 213.65625 317.734375 213.046875 319.464844 L 212.550781 320.8125 C 211.050781 318.226562 209.035156 316.140625 206.503906 314.554688 C 203.777344 312.941406 199.261719 312.714844 198.167969 316.414062 C 197.535156 318.519531 198.710938 320.710938 199.867188 322.414062 C 200.851562 324.246094 202.132812 325.839844 203.710938 327.191406 C 205.109375 328.453125 206.609375 329.585938 208.203125 330.59375 C 208.957031 331.050781 209.742188 331.503906 210.542969 331.925781 C 211.558594 332.441406 212.621094 333.070312 213.796875 333.027344 C 214.96875 332.980469 215.726562 332.269531 216.472656 331.507812 C 217.214844 330.75 217.816406 330.074219 218.460938 329.332031 C 219.753906 327.855469 220.976562 326.320312 222.128906 324.726562 C 224.242188 321.777344 227.140625 317.757812 224.878906 314.105469 Z M 350.035156 321.46875 C 349.789062 321.082031 349.5 320.734375 349.15625 320.425781 C 348.816406 320.121094 348.441406 319.863281 348.027344 319.664062 C 347.617188 319.460938 347.183594 319.320312 346.734375 319.238281 C 346.28125 319.15625 345.828125 319.136719 345.371094 319.179688 C 344.414062 319.269531 343.519531 319.546875 342.679688 320.015625 C 341.84375 320.484375 341.136719 321.101562 340.558594 321.867188 C 339.410156 323.339844 338.785156 325.097656 338.175781 326.828125 L 337.703125 328.164062 C 336.203125 325.582031 334.1875 323.496094 331.65625 321.910156 C 328.929688 320.296875 324.414062 320.074219 323.320312 323.773438 C 322.691406 325.871094 323.863281 328.066406 325.023438 329.773438 C 326.003906 331.609375 327.285156 333.207031 328.867188 334.5625 C 330.265625 335.824219 331.761719 336.957031 333.351562 337.964844 C 334.113281 338.421875 334.894531 338.878906 335.699219 339.292969 C 336.710938 339.816406 337.777344 340.4375 338.949219 340.394531 C 340.125 340.347656 340.882812 339.636719 341.628906 338.875 C 342.371094 338.117188 342.972656 337.441406 343.617188 336.703125 C 344.90625 335.226562 346.132812 333.683594 347.285156 332.097656 C 349.398438 329.15625 352.296875 325.132812 350.035156 321.46875 Z M 19.324219 270.867188 C 19.082031 270.476562 18.789062 270.128906 18.449219 269.820312 C 18.109375 269.515625 17.730469 269.257812 17.320312 269.058594 C 16.910156 268.855469 16.476562 268.710938 16.027344 268.628906 C 15.574219 268.546875 15.121094 268.527344 14.664062 268.574219 C 13.707031 268.664062 12.8125 268.941406 11.972656 269.410156 C 11.136719 269.878906 10.429688 270.5 9.851562 271.265625 C 8.703125 272.738281 8.078125 274.496094 7.46875 276.222656 L 6.996094 277.5625 C 5.496094 274.976562 3.480469 272.890625 0.945312 271.304688 C -1.777344 269.691406 -6.296875 269.464844 -7.386719 273.164062 C -8.019531 275.269531 -6.847656 277.460938 -5.683594 279.164062 C -4.703125 280.996094 -3.421875 282.589844 -1.84375 283.941406 C -0.453125 285.207031 1.035156 286.34375 2.621094 287.355469 C 3.382812 287.808594 4.164062 288.265625 4.960938 288.6875 C 5.980469 289.203125 7.042969 289.832031 8.214844 289.78125 C 9.386719 289.734375 10.152344 289.023438 10.894531 288.265625 C 11.640625 287.503906 12.238281 286.835938 12.886719 286.09375 C 14.175781 284.617188 15.402344 283.078125 16.550781 281.488281 C 18.664062 278.546875 21.5625 274.527344 19.300781 270.878906 Z M 218.65625 197.027344 C 218.414062 196.636719 218.121094 196.289062 217.777344 195.984375 C 217.4375 195.675781 217.0625 195.421875 216.648438 195.21875 C 216.238281 195.015625 215.804688 194.875 215.355469 194.792969 C 214.902344 194.710938 214.449219 194.691406 213.992188 194.738281 C 213.039062 194.824219 212.140625 195.105469 211.304688 195.574219 C 210.46875 196.039062 209.761719 196.660156 209.1875 197.425781 C 208.03125 198.898438 207.40625 200.65625 206.796875 202.382812 L 206.324219 203.722656 C 204.824219 201.136719 202.808594 199.050781 200.277344 197.464844 C 197.550781 195.851562 193.035156 195.625 191.941406 199.324219 C 191.3125 201.429688 192.484375 203.621094 193.644531 205.324219 C 194.628906 207.15625 195.90625 208.746094 197.488281 210.097656 C 198.886719 211.359375 200.382812 212.492188 201.972656 213.5 C 202.734375 213.980469 203.515625 214.410156 204.320312 214.832031 C 205.332031 215.347656 206.398438 215.976562 207.570312 215.933594 C 208.746094 215.886719 209.503906 215.171875 210.246094 214.414062 C 210.992188 213.660156 211.59375 212.980469 212.238281 212.238281 C 213.527344 210.761719 214.753906 209.222656 215.902344 207.632812 C 218.019531 204.6875 220.917969 200.675781 218.65625 197.027344 Z M 146.183594 256.828125 C 145.9375 256.4375 145.644531 256.089844 145.304688 255.785156 C 144.964844 255.476562 144.589844 255.222656 144.175781 255.019531 C 143.765625 254.816406 143.332031 254.675781 142.882812 254.59375 C 142.429688 254.511719 141.976562 254.492188 141.519531 254.535156 C 140.5625 254.625 139.667969 254.90625 138.828125 255.375 C 137.992188 255.839844 137.285156 256.460938 136.707031 257.226562 C 135.558594 258.699219 134.929688 260.457031 134.320312 262.183594 C 134.167969 262.632812 134.007812 263.078125 133.851562 263.523438 C 132.351562 260.9375 130.339844 258.851562 127.804688 257.269531 C 125.078125 255.65625 120.5625 255.429688 119.46875 259.128906 C 118.839844 261.226562 120.011719 263.425781 121.171875 265.128906 C 122.152344 266.960938 123.433594 268.550781 125.007812 269.902344 C 126.410156 271.164062 127.90625 272.300781 129.5 273.308594 C 130.261719 273.765625 131.042969 274.21875 131.84375 274.636719 C 132.859375 275.15625 133.925781 275.78125 135.09375 275.738281 C 136.261719 275.691406 137.03125 274.980469 137.773438 274.21875 C 138.519531 273.457031 139.121094 272.785156 139.765625 272.046875 C 141.054688 270.570312 142.28125 269.027344 143.429688 267.4375 C 145.546875 264.503906 148.441406 260.476562 146.183594 256.828125 Z M 74.308594 329.453125 C 74.0625 329.066406 73.769531 328.71875 73.429688 328.414062 C 73.089844 328.105469 72.714844 327.851562 72.300781 327.648438 C 71.890625 327.445312 71.460938 327.304688 71.007812 327.222656 C 70.558594 327.140625 70.105469 327.121094 69.648438 327.164062 C 68.691406 327.253906 67.796875 327.53125 66.957031 328 C 66.121094 328.46875 65.414062 329.085938 64.835938 329.855469 C 63.6875 331.300781 63.058594 333.085938 62.449219 334.8125 L 61.976562 336.148438 C 60.480469 333.566406 58.460938 331.480469 55.929688 329.890625 C 53.207031 328.277344 48.6875 328.054688 47.59375 331.753906 C 46.964844 333.855469 48.136719 336.050781 49.300781 337.753906 C 50.28125 339.585938 51.5625 341.175781 53.136719 342.53125 C 54.539062 343.792969 56.035156 344.925781 57.628906 345.929688 C 58.390625 346.386719 59.171875 346.84375 59.96875 347.265625 C 60.988281 347.78125 62.050781 348.410156 63.222656 348.367188 C 64.394531 348.320312 65.15625 347.609375 65.902344 346.847656 C 66.582031 346.136719 67.246094 345.410156 67.894531 344.667969 C 69.179688 343.191406 70.410156 341.65625 71.558594 340.066406 C 73.671875 337.125 76.570312 333.105469 74.308594 329.453125 Z M 410.234375 253.667969 C 409.992188 253.28125 409.699219 252.933594 409.359375 252.625 C 409.019531 252.320312 408.640625 252.066406 408.230469 251.863281 C 407.820312 251.660156 407.386719 251.519531 406.9375 251.4375 C 406.484375 251.351562 406.03125 251.335938 405.578125 251.378906 C 404.621094 251.46875 403.722656 251.746094 402.886719 252.214844 C 402.046875 252.683594 401.339844 253.300781 400.765625 254.066406 C 399.609375 255.539062 398.988281 257.296875 398.378906 259.027344 L 397.90625 260.363281 C 396.402344 257.78125 394.386719 255.699219 391.859375 254.109375 C 389.132812 252.496094 384.617188 252.273438 383.523438 255.96875 C 382.890625 258.070312 384.066406 260.265625 385.226562 261.972656 C 386.210938 263.800781 387.488281 265.394531 389.066406 266.746094 C 390.46875 268.007812 391.964844 269.140625 393.558594 270.148438 C 394.3125 270.605469 395.097656 271.0625 395.898438 271.476562 C 396.914062 272 397.976562 272.621094 399.152344 272.578125 C 400.324219 272.53125 401.082031 271.820312 401.832031 271.058594 C 402.511719 270.355469 403.171875 269.625 403.816406 268.886719 C 405.109375 267.410156 406.339844 265.871094 407.488281 264.28125 C 409.597656 261.34375 412.496094 257.324219 410.234375 253.667969 Z M 282.585938 143.808594 C 282.34375 143.421875 282.050781 143.074219 281.710938 142.765625 C 281.367188 142.460938 280.992188 142.203125 280.578125 142.003906 C 280.167969 141.800781 279.738281 141.660156 279.285156 141.578125 C 278.832031 141.496094 278.378906 141.476562 277.921875 141.519531 C 276.96875 141.609375 276.070312 141.886719 275.234375 142.355469 C 274.398438 142.824219 273.691406 143.441406 273.117188 144.207031 C 271.960938 145.65625 271.339844 147.4375 270.730469 149.167969 L 270.257812 150.503906 C 268.757812 147.921875 266.742188 145.835938 264.210938 144.246094 C 261.484375 142.632812 256.96875 142.410156 255.871094 146.113281 C 255.242188 148.210938 256.417969 150.40625 257.574219 152.113281 C 258.558594 153.941406 259.839844 155.53125 261.417969 156.882812 C 262.820312 158.144531 264.316406 159.28125 265.910156 160.289062 C 266.664062 160.746094 267.449219 161.203125 268.25 161.621094 C 269.265625 162.140625 270.328125 162.765625 271.503906 162.71875 C 272.675781 162.675781 273.433594 161.960938 274.179688 161.203125 C 274.921875 160.441406 275.523438 159.765625 276.167969 159.023438 C 277.460938 157.546875 278.679688 156.011719 279.835938 154.417969 C 281.949219 151.496094 284.847656 147.449219 282.585938 143.808594 Z M 361.875 196 C 361.628906 195.613281 361.335938 195.265625 360.996094 194.957031 C 360.65625 194.652344 360.28125 194.398438 359.867188 194.195312 C 359.457031 193.992188 359.027344 193.851562 358.574219 193.769531 C 358.125 193.6875 357.671875 193.667969 357.214844 193.710938 C 356.257812 193.800781 355.363281 194.078125 354.523438 194.546875 C 353.6875 195.015625 352.980469 195.632812 352.402344 196.402344 C 351.253906 197.875 350.625 199.632812 350.015625 201.359375 L 349.542969 202.699219 C 348.042969 200.117188 346.03125 198.03125 343.5 196.445312 C 340.773438 194.828125 336.257812 194.605469 335.160156 198.304688 C 334.53125 200.402344 335.703125 202.601562 336.867188 204.304688 C 337.847656 206.136719 339.128906 207.726562 340.703125 209.082031 C 342.105469 210.339844 343.605469 211.476562 345.195312 212.484375 C 345.957031 212.941406 346.738281 213.394531 347.539062 213.8125 C 348.550781 214.332031 349.617188 214.957031 350.789062 214.914062 C 351.960938 214.867188 352.726562 214.15625 353.46875 213.394531 C 354.214844 212.632812 354.8125 211.960938 355.460938 211.222656 C 356.746094 209.746094 357.976562 208.203125 359.125 206.617188 C 361.242188 203.667969 364.132812 199.648438 361.875 195.992188 Z M 403.753906 142.171875 C 403.511719 141.785156 403.21875 141.433594 402.875 141.128906 C 402.535156 140.820312 402.160156 140.566406 401.746094 140.363281 C 401.335938 140.160156 400.902344 140.019531 400.453125 139.9375 C 400 139.851562 399.546875 139.835938 399.089844 139.878906 C 398.132812 139.96875 397.238281 140.25 396.398438 140.71875 C 395.5625 141.1875 394.855469 141.804688 394.277344 142.574219 C 393.128906 144.019531 392.5 145.804688 391.890625 147.527344 C 391.738281 147.972656 391.578125 148.421875 391.417969 148.867188 C 389.921875 146.285156 387.90625 144.199219 385.375 142.609375 C 382.648438 140.996094 378.132812 140.773438 377.039062 144.472656 C 376.40625 146.574219 377.582031 148.765625 378.742188 150.472656 C 379.722656 152.300781 381.003906 153.894531 382.578125 155.25 C 383.980469 156.507812 385.476562 157.644531 387.070312 158.648438 C 387.832031 159.105469 388.613281 159.5625 389.414062 159.984375 C 390.429688 160.5 391.492188 161.128906 392.664062 161.078125 C 393.835938 161.027344 394.601562 160.320312 395.34375 159.558594 C 396.089844 158.800781 396.691406 158.125 397.335938 157.382812 C 398.621094 155.90625 399.851562 154.371094 401 152.777344 C 403.117188 149.835938 406.011719 145.8125 403.753906 142.164062 Z M 300.894531 249.527344 C 300.648438 249.140625 300.355469 248.792969 300.015625 248.484375 C 299.675781 248.179688 299.296875 247.925781 298.886719 247.722656 C 298.476562 247.519531 298.042969 247.378906 297.59375 247.296875 C 297.140625 247.214844 296.6875 247.195312 296.230469 247.238281 C 295.273438 247.328125 294.378906 247.605469 293.542969 248.070312 C 292.703125 248.539062 291.996094 249.152344 291.417969 249.917969 C 290.269531 251.390625 289.640625 253.148438 289.03125 254.878906 L 288.5625 256.234375 C 287.0625 253.652344 285.046875 251.566406 282.515625 249.980469 C 279.789062 248.367188 275.273438 248.144531 274.179688 251.839844 C 273.550781 253.941406 274.722656 256.136719 275.882812 257.84375 C 276.863281 259.675781 278.144531 261.265625 279.726562 262.617188 C 281.125 263.878906 282.621094 265.011719 284.210938 266.019531 C 284.972656 266.476562 285.753906 266.933594 286.554688 267.347656 C 287.570312 267.871094 288.636719 268.492188 289.808594 268.449219 C 290.980469 268.402344 291.742188 267.691406 292.484375 266.929688 C 293.230469 266.171875 293.832031 265.496094 294.476562 264.757812 C 295.761719 263.28125 296.992188 261.738281 298.140625 260.152344 C 300.257812 257.203125 303.15625 253.183594 300.894531 249.527344 Z M 300.894531 249.527344 " fill-opacity="1" fill-rule="nonzero"/></g></g></g></g></g></g><g mask="url(#8ee46d934e)"><g transform="matrix(1, 0, 0, 1, 433, 0)"><g clip-path="url(#2173370999)"><g clip-path="url(#31f0fddc7b)"><g clip-path="url(#ceab171d17)"><g clip-path="url(#4a2271a6cf)"><path fill="#ffffff" d="M 26.261719 -149.691406 C 25.132812 -148.105469 23.902344 -146.5625 22.617188 -145.085938 C 21.96875 -144.34375 21.304688 -143.617188 20.625 -142.914062 C 19.882812 -142.140625 19.074219 -141.429688 17.945312 -141.394531 C 16.816406 -141.363281 15.707031 -141.976562 14.695312 -142.496094 C 13.894531 -142.894531 13.113281 -143.335938 12.351562 -143.820312 C 10.757812 -144.828125 9.261719 -145.960938 7.859375 -147.21875 C 6.285156 -148.570312 5.003906 -150.160156 4.023438 -151.988281 C 2.863281 -153.683594 1.691406 -155.890625 2.320312 -157.988281 C 3.429688 -161.6875 7.929688 -161.464844 10.65625 -159.847656 C 13.1875 -158.261719 15.203125 -156.175781 16.703125 -153.589844 L 17.171875 -154.933594 C 17.78125 -156.65625 18.410156 -158.4375 19.558594 -159.890625 C 20.136719 -160.65625 20.84375 -161.273438 21.683594 -161.742188 C 22.519531 -162.210938 23.414062 -162.488281 24.371094 -162.582031 C 24.828125 -162.625 25.28125 -162.605469 25.734375 -162.523438 C 26.183594 -162.441406 26.617188 -162.300781 27.027344 -162.097656 C 27.4375 -161.894531 27.816406 -161.640625 28.15625 -161.335938 C 28.496094 -161.027344 28.789062 -160.679688 29.035156 -160.292969 C 31.292969 -156.636719 28.398438 -152.617188 26.261719 -149.691406 Z M 85.8125 -113.421875 C 85.566406 -113.808594 85.277344 -114.15625 84.933594 -114.464844 C 84.59375 -114.769531 84.21875 -115.023438 83.804688 -115.226562 C 83.394531 -115.429688 82.960938 -115.570312 82.511719 -115.652344 C 82.058594 -115.734375 81.605469 -115.753906 81.148438 -115.710938 C 80.191406 -115.621094 79.296875 -115.34375 78.460938 -114.875 C 77.625 -114.40625 76.917969 -113.789062 76.339844 -113.019531 C 75.1875 -111.574219 74.566406 -109.792969 73.957031 -108.0625 L 73.484375 -106.726562 C 71.980469 -109.304688 69.964844 -111.390625 67.433594 -112.980469 C 64.707031 -114.59375 60.191406 -114.816406 59.097656 -111.117188 C 58.46875 -109.019531 59.640625 -106.820312 60.800781 -105.117188 C 61.785156 -103.289062 63.066406 -101.703125 64.644531 -100.351562 C 66.042969 -99.089844 67.542969 -97.957031 69.132812 -96.949219 C 69.890625 -96.492188 70.675781 -96.035156 71.472656 -95.621094 C 72.492188 -95.101562 73.554688 -94.476562 74.726562 -94.519531 C 75.898438 -94.566406 76.660156 -95.277344 77.402344 -96.039062 C 78.148438 -96.796875 78.75 -97.472656 79.394531 -98.210938 C 80.679688 -99.6875 81.910156 -101.230469 83.058594 -102.816406 C 85.15625 -105.757812 88.054688 -109.765625 85.8125 -113.421875 Z M 166.03125 -166.457031 C 165.785156 -166.847656 165.492188 -167.195312 165.152344 -167.5 C 164.8125 -167.808594 164.433594 -168.0625 164.023438 -168.265625 C 163.613281 -168.464844 163.179688 -168.609375 162.730469 -168.691406 C 162.277344 -168.773438 161.824219 -168.792969 161.367188 -168.746094 C 160.410156 -168.660156 159.515625 -168.378906 158.675781 -167.910156 C 157.839844 -167.441406 157.132812 -166.824219 156.554688 -166.058594 C 155.40625 -164.585938 154.777344 -162.828125 154.167969 -161.097656 L 153.695312 -159.761719 C 152.195312 -162.34375 150.183594 -164.429688 147.652344 -166.015625 C 144.925781 -167.628906 140.410156 -167.851562 139.316406 -164.15625 C 138.683594 -162.054688 139.859375 -159.859375 141.019531 -158.152344 C 142 -156.324219 143.28125 -154.730469 144.855469 -153.378906 C 146.257812 -152.117188 147.757812 -150.984375 149.347656 -149.976562 C 150.109375 -149.519531 150.890625 -149.0625 151.691406 -148.648438 C 152.707031 -148.125 153.773438 -147.503906 154.941406 -147.546875 C 156.109375 -147.589844 156.878906 -148.304688 157.621094 -149.066406 C 158.367188 -149.824219 158.96875 -150.5 159.613281 -151.238281 C 160.898438 -152.714844 162.128906 -154.257812 163.277344 -155.84375 C 165.394531 -158.78125 168.289062 -162.800781 166.03125 -166.457031 Z M 246.167969 -2.359375 C 245.921875 -2.75 245.632812 -3.097656 245.289062 -3.40625 C 244.949219 -3.710938 244.574219 -3.964844 244.164062 -4.167969 C 243.75 -4.371094 243.320312 -4.511719 242.867188 -4.59375 C 242.417969 -4.675781 241.964844 -4.695312 241.507812 -4.652344 C 240.550781 -4.5625 239.65625 -4.285156 238.816406 -3.816406 C 237.980469 -3.347656 237.273438 -2.730469 236.695312 -1.960938 C 235.546875 -0.511719 234.917969 1.269531 234.308594 2.992188 L 233.839844 4.335938 C 232.339844 1.75 230.320312 -0.335938 227.789062 -1.921875 C 225.066406 -3.539062 220.546875 -3.761719 219.457031 -0.0625 C 218.824219 2.039062 219.996094 4.234375 221.160156 5.9375 C 222.140625 7.769531 223.421875 9.359375 224.996094 10.714844 C 226.398438 11.976562 227.894531 13.109375 229.488281 14.117188 C 230.25 14.570312 231.03125 15.027344 231.828125 15.449219 C 232.847656 15.964844 233.910156 16.59375 235.082031 16.550781 C 236.253906 16.503906 237.019531 15.792969 237.761719 15.03125 C 238.507812 14.269531 239.105469 13.597656 239.753906 12.855469 C 241.039062 11.378906 242.269531 9.839844 243.417969 8.25 C 245.53125 5.308594 248.429688 1.289062 246.167969 -2.359375 Z M 371.324219 5.011719 C 371.078125 4.621094 370.785156 4.273438 370.445312 3.96875 C 370.101562 3.660156 369.726562 3.40625 369.316406 3.203125 C 368.902344 3.003906 368.472656 2.859375 368.019531 2.777344 C 367.570312 2.695312 367.113281 2.675781 366.660156 2.722656 C 365.703125 2.808594 364.808594 3.089844 363.96875 3.558594 C 363.132812 4.023438 362.425781 4.644531 361.851562 5.410156 C 360.699219 6.859375 360.074219 8.640625 359.464844 10.371094 C 359.308594 10.816406 359.148438 11.261719 358.992188 11.707031 C 357.488281 9.125 355.464844 7.039062 352.929688 5.453125 C 350.203125 3.839844 345.6875 3.617188 344.59375 7.3125 C 343.964844 9.414062 345.136719 11.609375 346.296875 13.316406 C 347.28125 15.144531 348.5625 16.738281 350.140625 18.09375 C 351.539062 19.351562 353.035156 20.484375 354.625 21.492188 C 355.386719 21.949219 356.171875 22.40625 356.96875 22.820312 C 357.988281 23.34375 359.050781 23.964844 360.222656 23.921875 C 361.394531 23.878906 362.15625 23.164062 362.898438 22.402344 C 363.644531 21.644531 364.246094 20.96875 364.890625 20.230469 C 366.175781 18.753906 367.40625 17.214844 368.554688 15.625 C 370.6875 12.6875 373.582031 8.664062 371.324219 5.011719 Z M 40.609375 -45.597656 C 40.367188 -45.984375 40.074219 -46.332031 39.734375 -46.640625 C 39.394531 -46.945312 39.019531 -47.199219 38.605469 -47.402344 C 38.195312 -47.605469 37.761719 -47.746094 37.3125 -47.828125 C 36.863281 -47.910156 36.40625 -47.929688 35.953125 -47.886719 C 34.992188 -47.796875 34.089844 -47.519531 33.25 -47.050781 C 32.40625 -46.582031 31.695312 -45.964844 31.117188 -45.195312 C 29.96875 -43.722656 29.339844 -41.960938 28.730469 -40.238281 L 28.257812 -38.878906 C 26.761719 -41.46875 24.75 -43.558594 22.21875 -45.152344 C 19.492188 -46.765625 14.976562 -46.992188 13.878906 -43.292969 C 13.25 -41.195312 14.421875 -38.996094 15.585938 -37.292969 C 16.566406 -35.460938 17.847656 -33.867188 19.421875 -32.515625 C 20.824219 -31.253906 22.320312 -30.121094 23.914062 -29.113281 C 24.675781 -28.632812 25.457031 -28.1875 26.257812 -27.785156 C 27.269531 -27.265625 28.335938 -26.636719 29.507812 -26.683594 C 30.679688 -26.734375 31.445312 -27.441406 32.1875 -28.203125 C 32.933594 -28.964844 33.53125 -29.632812 34.179688 -30.375 C 35.464844 -31.851562 36.695312 -33.394531 37.84375 -34.980469 C 39.957031 -37.917969 42.847656 -41.941406 40.585938 -45.59375 Z M 239.925781 -119.441406 C 239.679688 -119.828125 239.386719 -120.179688 239.046875 -120.484375 C 238.707031 -120.792969 238.328125 -121.046875 237.917969 -121.25 C 237.507812 -121.453125 237.074219 -121.59375 236.621094 -121.675781 C 236.171875 -121.761719 235.71875 -121.777344 235.261719 -121.734375 C 234.304688 -121.644531 233.410156 -121.363281 232.574219 -120.894531 C 231.734375 -120.425781 231.027344 -119.808594 230.453125 -119.039062 C 229.300781 -117.59375 228.675781 -115.8125 228.066406 -114.085938 L 227.59375 -112.746094 C 226.09375 -115.328125 224.078125 -117.414062 221.546875 -119.003906 C 218.820312 -120.617188 214.304688 -120.839844 213.207031 -117.140625 C 212.582031 -115.039062 213.753906 -112.847656 214.910156 -111.140625 C 215.894531 -109.308594 217.175781 -107.71875 218.753906 -106.363281 C 220.15625 -105.105469 221.648438 -103.972656 223.242188 -102.964844 C 224.003906 -102.484375 224.789062 -102.050781 225.585938 -101.628906 C 226.601562 -101.113281 227.667969 -100.484375 228.839844 -100.535156 C 230.011719 -100.585938 230.773438 -101.292969 231.515625 -102.054688 C 232.257812 -102.8125 232.863281 -103.484375 233.503906 -104.226562 C 234.792969 -105.703125 236.023438 -107.242188 237.171875 -108.832031 C 239.308594 -111.769531 242.203125 -115.789062 239.925781 -119.441406 Z M 167.453125 -59.640625 C 167.207031 -60.027344 166.914062 -60.375 166.574219 -60.683594 C 166.230469 -60.992188 165.855469 -61.246094 165.445312 -61.445312 C 165.03125 -61.648438 164.601562 -61.792969 164.148438 -61.875 C 163.699219 -61.957031 163.242188 -61.972656 162.789062 -61.929688 C 161.832031 -61.839844 160.9375 -61.5625 160.097656 -61.09375 C 159.261719 -60.625 158.554688 -60.007812 157.980469 -59.242188 C 156.824219 -57.792969 156.203125 -56.011719 155.59375 -54.28125 L 155.121094 -52.945312 C 153.621094 -55.527344 151.605469 -57.617188 149.074219 -59.203125 C 146.347656 -60.816406 141.832031 -61.042969 140.734375 -57.335938 C 140.109375 -55.238281 141.28125 -53.042969 142.4375 -51.335938 C 143.421875 -49.507812 144.703125 -47.917969 146.28125 -46.566406 C 147.683594 -45.304688 149.179688 -44.167969 150.769531 -43.160156 C 151.53125 -42.703125 152.316406 -42.246094 153.113281 -41.832031 C 154.128906 -41.308594 155.195312 -40.683594 156.367188 -40.730469 C 157.539062 -40.773438 158.296875 -41.488281 159.042969 -42.25 C 159.785156 -43.007812 160.390625 -43.683594 161.03125 -44.425781 C 162.320312 -45.902344 163.546875 -47.4375 164.699219 -49.03125 C 166.832031 -51.96875 169.730469 -55.992188 167.453125 -59.640625 Z M 95.59375 12.988281 C 95.351562 12.597656 95.058594 12.25 94.71875 11.941406 C 94.378906 11.636719 94 11.382812 93.589844 11.179688 C 93.179688 10.976562 92.746094 10.835938 92.296875 10.753906 C 91.84375 10.671875 91.390625 10.652344 90.933594 10.699219 C 89.980469 10.785156 89.082031 11.066406 88.246094 11.53125 C 87.40625 12 86.699219 12.621094 86.125 13.386719 C 84.972656 14.859375 84.347656 16.617188 83.738281 18.339844 L 83.265625 19.683594 C 81.765625 17.097656 79.75 15.011719 77.214844 13.425781 C 74.496094 11.808594 69.972656 11.585938 68.882812 15.285156 C 68.25 17.386719 69.421875 19.582031 70.585938 21.285156 C 71.570312 23.117188 72.847656 24.710938 74.425781 26.0625 C 75.824219 27.324219 77.320312 28.457031 78.917969 29.464844 C 79.679688 29.945312 80.457031 30.375 81.257812 30.796875 C 82.273438 31.3125 83.335938 31.941406 84.507812 31.898438 C 85.683594 31.851562 86.445312 31.140625 87.191406 30.378906 C 87.933594 29.617188 88.53125 28.945312 89.179688 28.203125 C 90.46875 26.726562 91.695312 25.1875 92.847656 23.597656 C 94.960938 20.65625 97.871094 16.636719 95.59375 12.988281 Z M 431.523438 -62.800781 C 431.277344 -63.1875 430.988281 -63.535156 430.644531 -63.84375 C 430.304688 -64.148438 429.929688 -64.402344 429.519531 -64.605469 C 429.105469 -64.808594 428.675781 -64.949219 428.222656 -65.03125 C 427.773438 -65.113281 427.320312 -65.132812 426.863281 -65.089844 C 425.90625 -65 425.011719 -64.722656 424.171875 -64.253906 C 423.335938 -63.785156 422.628906 -63.167969 422.050781 -62.402344 C 420.902344 -60.929688 420.277344 -59.171875 419.667969 -57.441406 L 419.195312 -56.105469 C 417.691406 -58.6875 415.675781 -60.773438 413.144531 -62.359375 C 410.421875 -63.972656 405.902344 -64.195312 404.8125 -60.496094 C 404.179688 -58.398438 405.351562 -56.203125 406.515625 -54.496094 C 407.5 -52.667969 408.777344 -51.074219 410.351562 -49.71875 C 411.753906 -48.460938 413.253906 -47.324219 414.84375 -46.320312 C 415.605469 -45.863281 416.386719 -45.40625 417.183594 -44.988281 C 418.203125 -44.46875 419.265625 -43.84375 420.4375 -43.890625 C 421.609375 -43.933594 422.375 -44.648438 423.117188 -45.40625 C 423.863281 -46.167969 424.460938 -46.84375 425.109375 -47.582031 C 426.398438 -49.058594 427.625 -50.597656 428.773438 -52.1875 C 430.886719 -55.125 433.785156 -59.144531 431.523438 -62.800781 Z M 303.875 -172.667969 C 303.628906 -173.058594 303.339844 -173.40625 303 -173.714844 C 302.65625 -174.019531 302.28125 -174.277344 301.871094 -174.480469 C 301.457031 -174.683594 301.027344 -174.824219 300.578125 -174.910156 C 300.125 -174.992188 299.671875 -175.011719 299.214844 -174.96875 C 298.257812 -174.878906 297.359375 -174.597656 296.519531 -174.128906 C 295.679688 -173.660156 294.972656 -173.039062 294.398438 -172.269531 C 293.25 -170.820312 292.621094 -169.039062 292.011719 -167.308594 L 291.539062 -165.972656 C 290.042969 -168.558594 288.027344 -170.644531 285.496094 -172.230469 C 282.773438 -173.84375 278.253906 -174.070312 277.164062 -170.371094 C 276.53125 -168.265625 277.703125 -166.074219 278.867188 -164.363281 C 279.847656 -162.535156 281.128906 -160.945312 282.703125 -159.59375 C 284.109375 -158.332031 285.613281 -157.195312 287.214844 -156.191406 C 287.976562 -155.734375 288.757812 -155.28125 289.554688 -154.859375 C 290.570312 -154.34375 291.636719 -153.714844 292.808594 -153.757812 C 293.980469 -153.804688 294.742188 -154.515625 295.488281 -155.277344 C 296.238281 -156.035156 296.832031 -156.710938 297.480469 -157.453125 C 298.765625 -158.929688 299.996094 -160.46875 301.144531 -162.058594 C 303.242188 -164.996094 306.136719 -169.019531 303.875 -172.667969 Z M 383.164062 -120.472656 C 382.921875 -120.859375 382.628906 -121.207031 382.285156 -121.511719 C 381.945312 -121.820312 381.570312 -122.074219 381.15625 -122.277344 C 380.746094 -122.480469 380.3125 -122.621094 379.863281 -122.703125 C 379.410156 -122.785156 378.957031 -122.804688 378.5 -122.761719 C 377.546875 -122.671875 376.648438 -122.390625 375.8125 -121.925781 C 374.972656 -121.457031 374.265625 -120.839844 373.6875 -120.070312 C 372.539062 -118.597656 371.914062 -116.839844 371.304688 -115.113281 L 370.832031 -113.773438 C 369.332031 -116.359375 367.320312 -118.441406 364.789062 -120.027344 C 362.0625 -121.644531 357.542969 -121.867188 356.449219 -118.167969 C 355.820312 -116.070312 356.996094 -113.871094 358.152344 -112.167969 C 359.136719 -110.332031 360.417969 -108.734375 361.996094 -107.375 C 363.398438 -106.117188 364.894531 -104.984375 366.488281 -103.976562 C 367.25 -103.519531 368.027344 -103.0625 368.832031 -102.644531 C 369.84375 -102.125 370.914062 -101.5 372.082031 -101.546875 C 373.25 -101.589844 374.019531 -102.304688 374.761719 -103.0625 C 375.503906 -103.824219 376.109375 -104.5 376.75 -105.238281 C 378.039062 -106.714844 379.269531 -108.253906 380.417969 -109.847656 C 382.527344 -112.785156 385.421875 -116.824219 383.164062 -120.472656 Z M 425.039062 -174.308594 C 424.796875 -174.699219 424.503906 -175.046875 424.160156 -175.351562 C 423.820312 -175.660156 423.445312 -175.914062 423.03125 -176.117188 C 422.621094 -176.316406 422.1875 -176.460938 421.738281 -176.542969 C 421.285156 -176.625 420.832031 -176.644531 420.375 -176.597656 C 419.421875 -176.503906 418.53125 -176.226562 417.695312 -175.757812 C 416.859375 -175.289062 416.15625 -174.671875 415.578125 -173.910156 C 414.429688 -172.4375 413.800781 -170.675781 413.191406 -168.949219 L 412.722656 -167.609375 C 411.222656 -170.203125 409.203125 -172.296875 406.664062 -173.886719 C 403.933594 -175.5 399.417969 -175.722656 398.324219 -172.027344 C 397.695312 -169.925781 398.871094 -167.730469 400.027344 -166.023438 C 401.007812 -164.195312 402.289062 -162.601562 403.867188 -161.246094 C 405.265625 -159.988281 406.765625 -158.855469 408.355469 -157.847656 C 409.117188 -157.363281 409.902344 -156.921875 410.703125 -156.519531 C 411.714844 -155.996094 412.78125 -155.367188 413.953125 -155.417969 C 415.128906 -155.46875 415.886719 -156.175781 416.628906 -156.9375 C 417.375 -157.695312 417.976562 -158.367188 418.621094 -159.109375 C 419.910156 -160.585938 421.136719 -162.125 422.289062 -163.714844 C 424.421875 -166.632812 427.296875 -170.671875 425.039062 -174.308594 Z M 322.179688 -66.9375 C 321.9375 -67.328125 321.644531 -67.675781 321.304688 -67.980469 C 320.960938 -68.289062 320.585938 -68.542969 320.171875 -68.746094 C 319.761719 -68.949219 319.332031 -69.089844 318.878906 -69.171875 C 318.425781 -69.253906 317.972656 -69.273438 317.515625 -69.226562 C 316.5625 -69.140625 315.664062 -68.863281 314.828125 -68.394531 C 313.992188 -67.925781 313.285156 -67.308594 312.710938 -66.539062 C 311.554688 -65.066406 310.933594 -63.308594 310.324219 -61.582031 L 309.851562 -60.242188 C 308.351562 -62.824219 306.335938 -64.90625 303.808594 -66.496094 C 301.082031 -68.109375 296.566406 -68.335938 295.46875 -64.636719 C 294.84375 -62.539062 296.015625 -60.339844 297.171875 -58.636719 C 298.160156 -56.804688 299.4375 -55.210938 301.015625 -53.859375 C 302.417969 -52.601562 303.914062 -51.464844 305.503906 -50.457031 C 306.265625 -50 307.050781 -49.546875 307.847656 -49.128906 C 308.863281 -48.609375 309.929688 -47.984375 311.101562 -48.027344 C 312.273438 -48.074219 313.035156 -48.785156 313.777344 -49.546875 C 314.519531 -50.308594 315.125 -50.980469 315.765625 -51.71875 C 317.054688 -53.195312 318.285156 -54.738281 319.433594 -56.324219 C 321.542969 -59.261719 324.441406 -63.285156 322.179688 -66.9375 Z M 34.820312 65.175781 C 34.574219 64.785156 34.285156 64.4375 33.945312 64.128906 C 33.601562 63.824219 33.226562 63.566406 32.816406 63.363281 C 32.402344 63.160156 31.972656 63.019531 31.519531 62.9375 C 31.070312 62.855469 30.617188 62.835938 30.160156 62.882812 C 29.203125 62.972656 28.308594 63.25 27.46875 63.71875 C 26.632812 64.191406 25.925781 64.808594 25.347656 65.574219 C 24.199219 67.023438 23.570312 68.804688 22.960938 70.53125 L 22.488281 71.871094 C 20.992188 69.285156 18.976562 67.199219 16.445312 65.613281 C 13.703125 64 9.203125 63.753906 8.09375 67.472656 C 7.460938 69.578125 8.632812 71.769531 9.796875 73.476562 C 10.777344 75.304688 12.058594 76.898438 13.636719 78.25 C 15.035156 79.511719 16.53125 80.648438 18.125 81.652344 C 18.886719 82.132812 19.667969 82.566406 20.464844 82.984375 C 21.484375 83.503906 22.546875 84.132812 23.71875 84.082031 C 24.890625 84.03125 25.65625 83.324219 26.402344 82.5625 C 27.144531 81.804688 27.742188 81.132812 28.390625 80.390625 C 29.679688 78.914062 30.90625 77.371094 32.058594 75.785156 C 34.171875 72.847656 37.066406 68.824219 34.804688 65.175781 Z M 91.566406 112.042969 C 91.324219 111.652344 91.03125 111.304688 90.691406 111 C 90.347656 110.691406 89.972656 110.4375 89.558594 110.234375 C 89.148438 110.035156 88.71875 109.890625 88.265625 109.808594 C 87.8125 109.726562 87.359375 109.707031 86.902344 109.753906 C 85.949219 109.839844 85.050781 110.121094 84.214844 110.589844 C 83.378906 111.054688 82.671875 111.675781 82.097656 112.441406 C 80.941406 113.914062 80.316406 115.671875 79.707031 117.402344 L 79.234375 118.738281 C 77.734375 116.15625 75.71875 114.070312 73.191406 112.484375 C 70.464844 110.871094 65.949219 110.648438 64.851562 114.34375 C 64.222656 116.445312 65.398438 118.640625 66.554688 120.347656 C 67.539062 122.179688 68.820312 123.769531 70.398438 125.121094 C 71.800781 126.382812 73.292969 127.515625 74.886719 128.523438 C 75.644531 128.980469 76.429688 129.4375 77.230469 129.851562 C 78.242188 130.375 79.308594 130.996094 80.484375 130.953125 C 81.65625 130.90625 82.414062 130.195312 83.160156 129.433594 C 83.902344 128.675781 84.503906 128 85.148438 127.261719 C 86.4375 125.785156 87.664062 124.242188 88.816406 122.65625 C 90.929688 119.71875 93.828125 115.695312 91.566406 112.042969 Z M 171.800781 59.003906 C 171.554688 58.617188 171.265625 58.269531 170.921875 57.960938 C 170.582031 57.65625 170.207031 57.402344 169.796875 57.199219 C 169.382812 56.996094 168.953125 56.855469 168.5 56.773438 C 168.050781 56.691406 167.597656 56.671875 167.140625 56.714844 C 166.1875 56.804688 165.289062 57.085938 164.453125 57.550781 C 163.613281 58.019531 162.90625 58.636719 162.328125 59.40625 C 161.179688 60.875 160.554688 62.640625 159.945312 64.363281 L 159.472656 65.699219 C 157.96875 63.117188 155.953125 61.035156 153.421875 59.449219 C 150.699219 57.832031 146.179688 57.609375 145.089844 61.308594 C 144.457031 63.40625 145.628906 65.605469 146.792969 67.308594 C 147.773438 69.140625 149.054688 70.730469 150.632812 72.085938 C 152.03125 73.34375 153.53125 74.480469 155.121094 75.488281 C 155.882812 75.941406 156.664062 76.398438 157.460938 76.816406 C 158.480469 77.335938 159.542969 77.960938 160.714844 77.914062 C 161.886719 77.871094 162.652344 77.15625 163.398438 76.398438 C 164.140625 75.636719 164.738281 74.960938 165.386719 74.222656 C 166.675781 72.75 167.902344 71.207031 169.054688 69.621094 C 171.167969 66.679688 174.0625 62.660156 171.800781 59.003906 Z M 251.964844 223.101562 C 251.722656 222.710938 251.429688 222.363281 251.085938 222.058594 C 250.746094 221.75 250.371094 221.496094 249.957031 221.292969 C 249.546875 221.09375 249.113281 220.949219 248.664062 220.867188 C 248.210938 220.785156 247.757812 220.765625 247.300781 220.8125 C 246.347656 220.898438 245.449219 221.179688 244.613281 221.648438 C 243.777344 222.113281 243.070312 222.734375 242.496094 223.5 C 241.339844 224.972656 240.71875 226.730469 240.109375 228.460938 L 239.613281 229.808594 C 238.113281 227.222656 236.09375 225.136719 233.5625 223.546875 C 230.835938 221.933594 226.320312 221.710938 225.230469 225.410156 C 224.597656 227.511719 225.769531 229.707031 226.929688 231.410156 C 227.910156 233.242188 229.191406 234.835938 230.773438 236.1875 C 232.171875 237.449219 233.667969 238.582031 235.261719 239.589844 C 236.019531 240.042969 236.804688 240.5 237.605469 240.921875 C 238.621094 241.4375 239.683594 242.066406 240.855469 242.023438 C 242.03125 241.976562 242.789062 241.265625 243.53125 240.503906 C 244.277344 239.742188 244.878906 239.070312 245.523438 238.324219 C 246.8125 236.851562 248.035156 235.316406 249.1875 233.722656 C 251.304688 230.773438 254.203125 226.75 251.941406 223.101562 Z M 377.097656 230.464844 C 376.851562 230.074219 376.558594 229.726562 376.21875 229.421875 C 375.878906 229.113281 375.5 228.859375 375.089844 228.65625 C 374.675781 228.457031 374.246094 228.3125 373.792969 228.230469 C 373.34375 228.148438 372.890625 228.128906 372.433594 228.175781 C 371.476562 228.265625 370.582031 228.542969 369.742188 229.011719 C 368.90625 229.480469 368.199219 230.097656 367.621094 230.863281 C 366.472656 232.335938 365.84375 234.09375 365.234375 235.824219 L 364.761719 237.160156 C 363.261719 234.578125 361.25 232.492188 358.71875 230.90625 C 355.992188 229.292969 351.476562 229.070312 350.378906 232.765625 C 349.753906 234.867188 350.925781 237.0625 352.085938 238.769531 C 353.066406 240.605469 354.347656 242.203125 355.925781 243.558594 C 357.328125 244.816406 358.824219 245.953125 360.414062 246.960938 C 361.175781 247.417969 361.957031 247.871094 362.757812 248.289062 C 363.773438 248.808594 364.839844 249.433594 366.011719 249.390625 C 367.183594 249.34375 367.945312 248.632812 368.6875 247.871094 C 369.433594 247.109375 370.035156 246.4375 370.679688 245.699219 C 371.964844 244.222656 373.195312 242.679688 374.34375 241.09375 C 376.460938 238.148438 379.359375 234.128906 377.097656 230.464844 Z M 46.386719 179.863281 C 46.140625 179.472656 45.851562 179.125 45.507812 178.816406 C 45.167969 178.507812 44.792969 178.253906 44.382812 178.050781 C 43.96875 177.847656 43.539062 177.707031 43.085938 177.625 C 42.636719 177.542969 42.183594 177.523438 41.726562 177.566406 C 40.769531 177.65625 39.871094 177.9375 39.035156 178.40625 C 38.199219 178.875 37.492188 179.492188 36.914062 180.261719 C 35.765625 181.734375 35.136719 183.492188 34.527344 185.214844 L 34.054688 186.558594 C 32.554688 183.972656 30.539062 181.886719 28.007812 180.300781 C 25.285156 178.683594 20.765625 178.460938 19.671875 182.160156 C 19.042969 184.261719 20.214844 186.457031 21.378906 188.160156 C 22.359375 189.992188 23.640625 191.585938 25.214844 192.9375 C 26.609375 194.203125 28.097656 195.339844 29.683594 196.347656 C 30.445312 196.804688 31.226562 197.261719 32.023438 197.683594 C 33.039062 198.199219 34.105469 198.828125 35.277344 198.777344 C 36.449219 198.726562 37.214844 198.019531 37.957031 197.261719 C 38.699219 196.5 39.300781 195.828125 39.949219 195.085938 C 41.234375 193.609375 42.464844 192.074219 43.613281 190.480469 C 45.726562 187.542969 48.621094 183.523438 46.363281 179.871094 Z M 245.71875 106.019531 C 245.472656 105.632812 245.179688 105.285156 244.839844 104.976562 C 244.5 104.671875 244.121094 104.414062 243.710938 104.214844 C 243.300781 104.011719 242.867188 103.871094 242.414062 103.789062 C 241.964844 103.707031 241.511719 103.6875 241.054688 103.730469 C 240.097656 103.820312 239.203125 104.097656 238.367188 104.566406 C 237.527344 105.035156 236.820312 105.652344 236.246094 106.421875 C 235.09375 107.894531 234.464844 109.652344 233.855469 111.375 L 233.382812 112.71875 C 231.886719 110.132812 229.871094 108.046875 227.339844 106.460938 C 224.613281 104.84375 220.097656 104.621094 219 108.320312 C 218.375 110.421875 219.546875 112.617188 220.707031 114.320312 C 221.6875 116.152344 222.96875 117.742188 224.546875 119.09375 C 225.949219 120.351562 227.441406 121.488281 229.035156 122.492188 C 229.796875 122.972656 230.578125 123.40625 231.378906 123.828125 C 232.390625 124.34375 233.460938 124.972656 234.632812 124.925781 C 235.804688 124.882812 236.566406 124.164062 237.308594 123.410156 C 238.050781 122.652344 238.65625 121.972656 239.300781 121.230469 C 240.585938 119.753906 241.816406 118.21875 242.964844 116.625 C 245.082031 113.683594 247.980469 109.671875 245.71875 106.019531 Z M 173.246094 165.820312 C 173 165.433594 172.707031 165.085938 172.367188 164.777344 C 172.027344 164.472656 171.648438 164.21875 171.238281 164.015625 C 170.824219 163.8125 170.394531 163.671875 169.941406 163.589844 C 169.492188 163.507812 169.039062 163.488281 168.582031 163.53125 C 167.625 163.621094 166.726562 163.898438 165.890625 164.367188 C 165.054688 164.835938 164.347656 165.453125 163.769531 166.222656 C 162.621094 167.691406 161.992188 169.453125 161.382812 171.179688 C 161.230469 171.625 161.070312 172.070312 160.910156 172.515625 C 159.414062 169.933594 157.398438 167.847656 154.867188 166.261719 C 152.140625 164.648438 147.625 164.425781 146.527344 168.125 C 145.902344 170.222656 147.074219 172.421875 148.234375 174.125 C 149.214844 175.953125 150.492188 177.546875 152.070312 178.898438 C 153.472656 180.160156 154.96875 181.292969 156.5625 182.304688 C 157.324219 182.757812 158.105469 183.214844 158.90625 183.632812 C 159.917969 184.152344 160.988281 184.777344 162.15625 184.730469 C 163.324219 184.6875 164.09375 183.972656 164.835938 183.214844 C 165.578125 182.453125 166.183594 181.777344 166.828125 181.039062 C 168.113281 179.566406 169.34375 178.023438 170.492188 176.429688 C 172.609375 173.496094 175.5 169.472656 173.246094 165.820312 Z M 101.367188 238.449219 C 101.125 238.0625 100.832031 237.714844 100.492188 237.40625 C 100.152344 237.101562 99.773438 236.847656 99.363281 236.644531 C 98.953125 236.441406 98.519531 236.300781 98.070312 236.21875 C 97.617188 236.136719 97.164062 236.117188 96.710938 236.160156 C 95.753906 236.25 94.855469 236.527344 94.019531 236.996094 C 93.179688 237.464844 92.472656 238.082031 91.898438 238.847656 C 90.746094 240.296875 90.121094 242.078125 89.511719 243.808594 L 89.039062 245.144531 C 87.539062 242.558594 85.523438 240.472656 82.992188 238.886719 C 80.269531 237.273438 75.75 237.050781 74.65625 240.746094 C 74.023438 242.851562 75.199219 245.042969 76.359375 246.75 C 77.34375 248.578125 78.621094 250.171875 80.199219 251.523438 C 81.597656 252.785156 83.097656 253.921875 84.691406 254.925781 C 85.453125 255.382812 86.230469 255.839844 87.03125 256.261719 C 88.046875 256.777344 89.109375 257.40625 90.285156 257.359375 C 91.457031 257.316406 92.214844 256.601562 92.964844 255.84375 C 93.644531 255.132812 94.304688 254.40625 94.953125 253.664062 C 96.242188 252.1875 97.472656 250.652344 98.621094 249.058594 C 100.730469 246.121094 103.628906 242.101562 101.367188 238.449219 Z M 437.296875 162.660156 C 437.050781 162.273438 436.761719 161.925781 436.417969 161.621094 C 436.078125 161.3125 435.703125 161.058594 435.292969 160.855469 C 434.878906 160.65625 434.449219 160.511719 434 160.429688 C 433.546875 160.347656 433.09375 160.328125 432.636719 160.371094 C 431.683594 160.460938 430.785156 160.742188 429.949219 161.207031 C 429.109375 161.675781 428.402344 162.292969 427.824219 163.0625 C 426.671875 164.535156 426.050781 166.292969 425.441406 168.019531 L 424.96875 169.359375 C 423.464844 166.777344 421.449219 164.691406 418.917969 163.105469 C 416.191406 161.492188 411.675781 161.265625 410.585938 164.964844 C 409.953125 167.0625 411.125 169.261719 412.289062 170.964844 C 413.273438 172.796875 414.550781 174.390625 416.128906 175.742188 C 417.527344 177.003906 419.027344 178.136719 420.617188 179.144531 C 421.375 179.601562 422.160156 180.054688 422.960938 180.472656 C 423.976562 180.992188 425.039062 181.617188 426.210938 181.574219 C 427.382812 181.527344 428.144531 180.816406 428.894531 180.054688 C 429.570312 179.347656 430.234375 178.621094 430.878906 177.882812 C 432.171875 176.40625 433.398438 174.863281 434.550781 173.277344 C 436.660156 170.339844 439.558594 166.316406 437.296875 162.660156 Z M 309.648438 52.804688 C 309.402344 52.414062 309.109375 52.066406 308.769531 51.761719 C 308.429688 51.453125 308.054688 51.199219 307.640625 50.996094 C 307.230469 50.796875 306.796875 50.652344 306.347656 50.570312 C 305.894531 50.488281 305.441406 50.46875 304.984375 50.515625 C 304.027344 50.601562 303.132812 50.882812 302.296875 51.351562 C 301.460938 51.816406 300.753906 52.4375 300.175781 53.203125 C 299.023438 54.652344 298.402344 56.433594 297.792969 58.164062 L 297.320312 59.5 C 295.820312 56.914062 293.800781 54.828125 291.269531 53.242188 C 288.542969 51.628906 284.027344 51.402344 282.933594 55.105469 C 282.304688 57.207031 283.476562 59.402344 284.636719 61.109375 C 285.621094 62.9375 286.902344 64.527344 288.480469 65.878906 C 289.878906 67.140625 291.378906 68.277344 292.96875 69.285156 C 293.726562 69.742188 294.511719 70.199219 295.3125 70.613281 C 296.328125 71.132812 297.390625 71.757812 298.5625 71.714844 C 299.734375 71.667969 300.496094 70.957031 301.238281 70.195312 C 301.984375 69.4375 302.585938 68.761719 303.230469 68.019531 C 304.519531 66.542969 305.742188 65.007812 306.894531 63.414062 C 309.011719 60.488281 311.910156 56.445312 309.648438 52.804688 Z M 388.933594 104.996094 C 388.691406 104.609375 388.398438 104.261719 388.058594 103.953125 C 387.71875 103.648438 387.339844 103.390625 386.929688 103.191406 C 386.519531 102.988281 386.085938 102.847656 385.636719 102.765625 C 385.183594 102.683594 384.730469 102.664062 384.273438 102.707031 C 383.320312 102.796875 382.421875 103.074219 381.585938 103.542969 C 380.746094 104.011719 380.039062 104.628906 379.464844 105.394531 C 378.316406 106.867188 377.6875 108.625 377.078125 110.355469 L 376.605469 111.691406 C 375.105469 109.109375 373.089844 107.027344 370.5625 105.4375 C 367.835938 103.824219 363.320312 103.601562 362.222656 107.300781 C 361.589844 109.398438 362.765625 111.597656 363.925781 113.300781 C 364.910156 115.128906 366.191406 116.722656 367.765625 118.078125 C 369.167969 119.335938 370.664062 120.46875 372.257812 121.476562 C 373.019531 121.933594 373.796875 122.390625 374.601562 122.808594 C 375.613281 123.328125 376.675781 123.953125 377.851562 123.90625 C 379.023438 123.863281 379.785156 123.148438 380.53125 122.390625 C 381.273438 121.628906 381.871094 120.953125 382.519531 120.214844 C 383.808594 118.738281 385.035156 117.199219 386.1875 115.613281 C 388.300781 112.664062 391.195312 108.640625 388.933594 104.988281 Z M 430.816406 51.167969 C 430.570312 50.777344 430.277344 50.429688 429.9375 50.121094 C 429.597656 49.816406 429.21875 49.558594 428.808594 49.359375 C 428.398438 49.15625 427.964844 49.011719 427.511719 48.929688 C 427.0625 48.847656 426.609375 48.828125 426.152344 48.875 C 425.195312 48.964844 424.296875 49.242188 423.460938 49.710938 C 422.625 50.183594 421.917969 50.800781 421.339844 51.566406 C 420.191406 53.015625 419.5625 54.796875 418.953125 56.523438 C 418.800781 56.96875 418.640625 57.417969 418.480469 57.863281 C 416.980469 55.28125 414.96875 53.195312 412.4375 51.605469 C 409.710938 49.992188 405.195312 49.765625 404.097656 53.464844 C 403.464844 55.570312 404.644531 57.761719 405.800781 59.464844 C 406.785156 61.296875 408.0625 62.890625 409.640625 64.242188 C 411.042969 65.503906 412.539062 66.636719 414.132812 67.644531 C 414.894531 68.101562 415.671875 68.554688 416.476562 68.976562 C 417.488281 69.492188 418.550781 70.125 419.726562 70.074219 C 420.898438 70.023438 421.664062 69.316406 422.40625 68.554688 C 423.148438 67.796875 423.753906 67.121094 424.394531 66.378906 C 425.683594 64.902344 426.914062 63.363281 428.0625 61.773438 C 430.179688 58.828125 433.070312 54.808594 430.816406 51.15625 Z M 327.957031 158.523438 C 327.710938 158.136719 327.417969 157.789062 327.078125 157.480469 C 326.734375 157.171875 326.359375 156.917969 325.949219 156.71875 C 325.535156 156.515625 325.105469 156.371094 324.652344 156.289062 C 324.203125 156.207031 323.746094 156.191406 323.292969 156.234375 C 322.335938 156.320312 321.441406 156.597656 320.601562 157.066406 C 319.765625 157.53125 319.058594 158.148438 318.480469 158.914062 C 317.332031 160.386719 316.703125 162.144531 316.09375 163.871094 L 315.621094 165.230469 C 314.121094 162.644531 312.109375 160.5625 309.578125 158.976562 C 306.851562 157.359375 302.335938 157.136719 301.238281 160.835938 C 300.613281 162.933594 301.785156 165.132812 302.945312 166.835938 C 303.925781 168.667969 305.207031 170.261719 306.785156 171.613281 C 308.1875 172.871094 309.683594 174.007812 311.273438 175.015625 C 312.035156 175.472656 312.816406 175.925781 313.617188 176.34375 C 314.628906 176.863281 315.699219 177.488281 316.871094 177.445312 C 318.042969 177.398438 318.804688 176.6875 319.546875 175.925781 C 320.289062 175.164062 320.894531 174.492188 321.535156 173.753906 C 322.824219 172.277344 324.054688 170.734375 325.203125 169.148438 C 327.320312 166.199219 330.214844 162.179688 327.957031 158.523438 Z M 327.957031 158.523438 " fill-opacity="1" fill-rule="nonzero"/></g></g></g></g></g></g></svg>